<svg width="47" height="47" viewBox="0 0 47 47" fill="none" xmlns="http://www.w3.org/2000/svg">
<path d="M11.75 25.85H35.25V21.15H11.75V25.85ZM23.5 47C20.2492 47 17.1942 46.3831 14.335 45.1494C11.4758 43.9156 8.98875 42.2412 6.87375 40.1262C4.75875 38.0112 3.08437 35.5242 1.85062 32.665C0.616875 29.8058 0 26.7508 0 23.5C0 20.2492 0.616875 17.1942 1.85062 14.335C3.08437 11.4758 4.75875 8.98875 6.87375 6.87375C8.98875 4.75875 11.4758 3.08437 14.335 1.85062C17.1942 0.616875 20.2492 0 23.5 0C26.7508 0 29.8058 0.616875 32.665 1.85062C35.5242 3.08437 38.0112 4.75875 40.1262 6.87375C42.2412 8.98875 43.9156 11.4758 45.1494 14.335C46.3831 17.1942 47 20.2492 47 23.5C47 26.7508 46.3831 29.8058 45.1494 32.665C43.9156 35.5242 42.2412 38.0112 40.1262 40.1262C38.0112 42.2412 35.5242 43.9156 32.665 45.1494C29.8058 46.3831 26.7508 47 23.5 47ZM23.5 42.3C28.7483 42.3 33.1937 40.4787 36.8362 36.8362C40.4787 33.1937 42.3 28.7483 42.3 23.5C42.3 18.2517 40.4787 13.8062 36.8362 10.1637C33.1937 6.52125 28.7483 4.7 23.5 4.7C18.2517 4.7 13.8062 6.52125 10.1637 10.1637C6.52125 13.8062 4.7 18.2517 4.7 23.5C4.7 28.7483 6.52125 33.1937 10.1637 36.8362C13.8062 40.4787 18.2517 42.3 23.5 42.3Z" fill="#DC6868"/>
</svg>
