<svg width="21" height="21" viewBox="0 0 21 21" fill="none" xmlns="http://www.w3.org/2000/svg">
<path d="M5.909 12.4658C6.32567 12.4658 6.67984 12.32 6.9715 12.0283C7.26317 11.7367 7.409 11.3825 7.409 10.9658C7.409 10.5492 7.26317 10.195 6.9715 9.90332C6.67984 9.61165 6.32567 9.46582 5.909 9.46582C5.49234 9.46582 5.13817 9.61165 4.8465 9.90332C4.55484 10.195 4.409 10.5492 4.409 10.9658C4.409 11.3825 4.55484 11.7367 4.8465 12.0283C5.13817 12.32 5.49234 12.4658 5.909 12.4658ZM10.909 12.4658C11.3257 12.4658 11.6798 12.32 11.9715 12.0283C12.2632 11.7367 12.409 11.3825 12.409 10.9658C12.409 10.5492 12.2632 10.195 11.9715 9.90332C11.6798 9.61165 11.3257 9.46582 10.909 9.46582C10.4923 9.46582 10.1382 9.61165 9.8465 9.90332C9.55484 10.195 9.409 10.5492 9.409 10.9658C9.409 11.3825 9.55484 11.7367 9.8465 12.0283C10.1382 12.32 10.4923 12.4658 10.909 12.4658ZM15.909 12.4658C16.3257 12.4658 16.6798 12.32 16.9715 12.0283C17.2632 11.7367 17.409 11.3825 17.409 10.9658C17.409 10.5492 17.2632 10.195 16.9715 9.90332C16.6798 9.61165 16.3257 9.46582 15.909 9.46582C15.4923 9.46582 15.1382 9.61165 14.8465 9.90332C14.5548 10.195 14.409 10.5492 14.409 10.9658C14.409 11.3825 14.5548 11.7367 14.8465 12.0283C15.1382 12.32 15.4923 12.4658 15.909 12.4658ZM10.909 20.9658C9.52567 20.9658 8.22567 20.7033 7.009 20.1783C5.79234 19.6533 4.734 18.9408 3.834 18.0408C2.934 17.1408 2.2215 16.0825 1.6965 14.8658C1.1715 13.6492 0.909004 12.3492 0.909004 10.9658C0.909004 9.58249 1.1715 8.28249 1.6965 7.06582C2.2215 5.84915 2.934 4.79082 3.834 3.89082C4.734 2.99082 5.79234 2.27832 7.009 1.75332C8.22567 1.22832 9.52567 0.96582 10.909 0.96582C12.2923 0.96582 13.5923 1.22832 14.809 1.75332C16.0257 2.27832 17.084 2.99082 17.984 3.89082C18.884 4.79082 19.5965 5.84915 20.1215 7.06582C20.6465 8.28249 20.909 9.58249 20.909 10.9658C20.909 12.3492 20.6465 13.6492 20.1215 14.8658C19.5965 16.0825 18.884 17.1408 17.984 18.0408C17.084 18.9408 16.0257 19.6533 14.809 20.1783C13.5923 20.7033 12.2923 20.9658 10.909 20.9658ZM10.909 18.9658C13.1423 18.9658 15.034 18.1908 16.584 16.6408C18.134 15.0908 18.909 13.1992 18.909 10.9658C18.909 8.73249 18.134 6.84082 16.584 5.29082C15.034 3.74082 13.1423 2.96582 10.909 2.96582C8.67567 2.96582 6.784 3.74082 5.234 5.29082C3.684 6.84082 2.909 8.73249 2.909 10.9658C2.909 13.1992 3.684 15.0908 5.234 16.6408C6.784 18.1908 8.67567 18.9658 10.909 18.9658Z" fill="#3D0A91"/>
</svg>
