<svg width="47" height="47" viewBox="0 0 47 47" fill="none" xmlns="http://www.w3.org/2000/svg">
<path d="M23.5 47C17.4944 47 12.2613 45.009 7.80069 41.0271C3.34005 37.0451 0.783333 32.0731 0.130556 26.1111H5.48333C6.09259 30.637 8.10532 34.3796 11.5215 37.3389C14.9377 40.2981 18.9306 41.7778 23.5 41.7778C28.5917 41.7778 32.9109 40.0044 36.4576 36.4576C40.0044 32.9109 41.7778 28.5917 41.7778 23.5C41.7778 18.4083 40.0044 14.0891 36.4576 10.5424C32.9109 6.9956 28.5917 5.22222 23.5 5.22222C20.4972 5.22222 17.6903 5.91852 15.0792 7.31111C12.4681 8.7037 10.2704 10.6185 8.48611 13.0556H15.6667V18.2778H0V2.61111H5.22222V8.74722C7.44167 5.96204 10.1507 3.80787 13.3493 2.28472C16.5479 0.761574 19.9315 0 23.5 0C26.7639 0 29.8211 0.620139 32.6715 1.86042C35.522 3.10069 38.0025 4.77616 40.1132 6.88681C42.2238 8.99745 43.8993 11.478 45.1396 14.3285C46.3799 17.1789 47 20.2361 47 23.5C47 26.7639 46.3799 29.8211 45.1396 32.6715C43.8993 35.522 42.2238 38.0025 40.1132 40.1132C38.0025 42.2238 35.522 43.8993 32.6715 45.1396C29.8211 46.3799 26.7639 47 23.5 47ZM30.8111 34.4667L20.8889 24.5444V10.4444H26.1111V22.4556L34.4667 30.8111L30.8111 34.4667Z" fill="#797979"/>
</svg>
