<svg width="43" height="47" viewBox="0 0 43 47" fill="none" xmlns="http://www.w3.org/2000/svg">
<path d="M30.1 42.7273V38.4545H38.7V17.0909H8.6V25.6364H4.3V8.54545C4.3 7.37045 4.72104 6.36458 5.56313 5.52784C6.40521 4.6911 7.4175 4.27273 8.6 4.27273H10.75V0H15.05V4.27273H32.25V0H36.55V4.27273H38.7C39.8825 4.27273 40.8948 4.6911 41.7369 5.52784C42.579 6.36458 43 7.37045 43 8.54545V38.4545C43 39.6295 42.579 40.6354 41.7369 41.4722C40.8948 42.3089 39.8825 42.7273 38.7 42.7273H30.1ZM15.05 47L12.04 44.0091L17.5763 38.4545H0V34.1818H17.5763L12.04 28.6273L15.05 25.6364L25.8 36.3182L15.05 47ZM8.6 12.8182H38.7V8.54545H8.6V12.8182Z" fill="#194C39"/>
</svg>
