<svg width="19" height="15" viewBox="0 0 19 15" fill="none" xmlns="http://www.w3.org/2000/svg">
<path d="M7.125 7.125C9.09251 7.125 10.6875 5.53001 10.6875 3.5625C10.6875 1.59499 9.09251 0 7.125 0C5.15749 0 3.5625 1.59499 3.5625 3.5625C3.5625 5.53001 5.15749 7.125 7.125 7.125Z" fill="black"/>
<path d="M1.1875 14.25C1.1875 14.25 0 14.25 0 13.0625C0 11.875 1.1875 8.3125 7.125 8.3125C13.0625 8.3125 14.25 11.875 14.25 13.0625C14.25 14.25 13.0625 14.25 13.0625 14.25H1.1875Z" fill="black"/>
<path d="M13.0625 1.78125C13.0625 1.45333 13.3283 1.1875 13.6562 1.1875H18.4062C18.7342 1.1875 19 1.45333 19 1.78125C19 2.10917 18.7342 2.375 18.4062 2.375H13.6562C13.3283 2.375 13.0625 2.10917 13.0625 1.78125Z" fill="black"/>
<path d="M13.6562 4.75C13.3283 4.75 13.0625 5.01583 13.0625 5.34375C13.0625 5.67167 13.3283 5.9375 13.6562 5.9375H18.4062C18.7342 5.9375 19 5.67167 19 5.34375C19 5.01583 18.7342 4.75 18.4062 4.75H13.6562Z" fill="black"/>
<path d="M16.0312 8.3125C15.7033 8.3125 15.4375 8.57833 15.4375 8.90625C15.4375 9.23417 15.7033 9.5 16.0312 9.5H18.4062C18.7342 9.5 19 9.23417 19 8.90625C19 8.57833 18.7342 8.3125 18.4062 8.3125H16.0312Z" fill="black"/>
<path d="M16.0312 11.875C15.7033 11.875 15.4375 12.1408 15.4375 12.4688C15.4375 12.7967 15.7033 13.0625 16.0312 13.0625H18.4062C18.7342 13.0625 19 12.7967 19 12.4688C19 12.1408 18.7342 11.875 18.4062 11.875H16.0312Z" fill="black"/>
</svg>
