<svg width="13" height="17" viewBox="0 0 13 17" fill="none" xmlns="http://www.w3.org/2000/svg">
<path d="M10.8011 9.4985C10.2444 10.6266 9.49074 11.7514 8.71861 12.7607C7.9489 13.7668 7.17657 14.6379 6.59566 15.258C6.51847 15.3404 6.44476 15.4183 6.375 15.4913C6.30524 15.4183 6.23153 15.3404 6.15434 15.258C5.57343 14.6379 4.8011 13.7668 4.03139 12.7607C3.25926 11.7514 2.50564 10.6266 1.94887 9.4985C1.38635 8.35877 1.0625 7.29078 1.0625 6.375C1.0625 3.44099 3.44099 1.0625 6.375 1.0625C9.30901 1.0625 11.6875 3.44099 11.6875 6.375C11.6875 7.29078 11.3636 8.35877 10.8011 9.4985ZM6.375 17C6.375 17 12.75 10.9583 12.75 6.375C12.75 2.85418 9.89582 0 6.375 0C2.85418 0 0 2.85418 0 6.375C0 10.9583 6.375 17 6.375 17Z" fill="black"/>
<path d="M6.375 8.5C5.20139 8.5 4.25 7.54861 4.25 6.375C4.25 5.20139 5.20139 4.25 6.375 4.25C7.54861 4.25 8.5 5.20139 8.5 6.375C8.5 7.54861 7.54861 8.5 6.375 8.5ZM6.375 9.5625C8.13541 9.5625 9.5625 8.13541 9.5625 6.375C9.5625 4.61459 8.13541 3.1875 6.375 3.1875C4.61459 3.1875 3.1875 4.61459 3.1875 6.375C3.1875 8.13541 4.61459 9.5625 6.375 9.5625Z" fill="black"/>
</svg>
