<svg width="24" height="24" viewBox="0 0 24 24" fill="none" xmlns="http://www.w3.org/2000/svg">
<path d="M19 3C19.55 3 20.0208 3.19583 20.4125 3.5875C20.8042 3.97917 21 4.45 21 5L21 19C21 19.55 20.8042 20.0208 20.4125 20.4125C20.0208 20.8042 19.55 21 19 21L13 21C12.7167 21 12.4792 20.9042 12.2875 20.7125C12.0958 20.5208 12 20.2833 12 20C12 19.7167 12.0958 19.4792 12.2875 19.2875C12.4792 19.0958 12.7167 19 13 19L19 19L19 5L13 5C12.7167 5 12.4792 4.90417 12.2875 4.7125C12.0958 4.52083 12 4.28333 12 4C12 3.71667 12.0958 3.47917 12.2875 3.2875C12.4792 3.09583 12.7167 3 13 3L19 3ZM6.825 11L14 11C14.2833 11 14.5208 11.0958 14.7125 11.2875C14.9042 11.4792 15 11.7167 15 12C15 12.2833 14.9042 12.5208 14.7125 12.7125C14.5208 12.9042 14.2833 13 14 13L6.825 13L8.7 14.875C8.88333 15.0583 8.975 15.2833 8.975 15.55C8.975 15.8167 8.88333 16.05 8.7 16.25C8.51667 16.45 8.28333 16.5542 8 16.5625C7.71667 16.5708 7.475 16.475 7.275 16.275L3.7 12.7C3.5 12.5 3.4 12.2667 3.4 12C3.4 11.7333 3.5 11.5 3.7 11.3L7.275 7.725C7.475 7.525 7.7125 7.42917 7.9875 7.4375C8.2625 7.44583 8.5 7.55 8.7 7.75C8.88333 7.95 8.97083 8.1875 8.9625 8.4625C8.95417 8.7375 8.85833 8.96667 8.675 9.15L6.825 11Z" fill="black"/>
</svg>
