<svg width="25" height="25" viewBox="0 0 25 25" fill="none" xmlns="http://www.w3.org/2000/svg">
<path fill-rule="evenodd" clip-rule="evenodd" d="M17.1875 7.8125C17.1875 10.4013 15.0888 12.5 12.5 12.5C9.91117 12.5 7.8125 10.4013 7.8125 7.8125C7.8125 5.22367 9.91117 3.125 12.5 3.125C15.0888 3.125 17.1875 5.22367 17.1875 7.8125ZM3.125 20.3125C3.125 21.875 4.6875 21.875 4.6875 21.875H12.9001C12.641 21.1419 12.5 20.3531 12.5 19.5312C12.5 17.4162 13.4339 15.5192 14.9119 14.2302C14.1829 14.1221 13.3812 14.0625 12.5 14.0625C4.6875 14.0625 3.125 18.75 3.125 20.3125Z" fill="#F2E7DC"/>
<path fill-rule="evenodd" clip-rule="evenodd" d="M18.571 14.7805C18.8532 13.8232 20.2093 13.8232 20.4915 14.7805L20.5599 15.0127C20.7402 15.6244 21.4389 15.9139 21.999 15.6088L22.2115 15.493C23.088 15.0156 24.0469 15.9745 23.5695 16.851L23.4537 17.0635C23.1486 17.6236 23.4381 18.3223 24.0498 18.5026L24.282 18.571C25.2393 18.8532 25.2393 20.2093 24.282 20.4915L24.0498 20.5599C23.4381 20.7402 23.1486 21.4389 23.4537 21.999L23.5695 22.2115C24.0469 23.088 23.088 24.0469 22.2115 23.5695L21.999 23.4537C21.4389 23.1486 20.7402 23.4381 20.5599 24.0498L20.4915 24.282C20.2093 25.2393 18.8532 25.2393 18.571 24.282L18.5026 24.0498C18.3223 23.4381 17.6236 23.1486 17.0635 23.4537L16.851 23.5695C15.9745 24.0469 15.0156 23.088 15.493 22.2115L15.6088 21.999C15.9139 21.4389 15.6244 20.7402 15.0127 20.5599L14.7805 20.4915C13.8232 20.2093 13.8232 18.8532 14.7805 18.571L15.0127 18.5026C15.6244 18.3223 15.9139 17.6236 15.6088 17.0635L15.493 16.851C15.0156 15.9745 15.9745 15.0156 16.851 15.493L17.0635 15.6088C17.6236 15.9139 18.3223 15.6244 18.5026 15.0127L18.571 14.7805ZM21.875 19.5313C21.875 20.8257 20.8257 21.875 19.5313 21.875C18.2368 21.875 17.1875 20.8257 17.1875 19.5313C17.1875 18.2368 18.2368 17.1875 19.5313 17.1875C20.8257 17.1875 21.875 18.2368 21.875 19.5313Z" fill="#F2E7DC"/>
</svg>
