<svg width="30" height="30" viewBox="0 0 30 30" fill="none" xmlns="http://www.w3.org/2000/svg">
<path fill-rule="evenodd" clip-rule="evenodd" d="M20.625 9.375C20.625 12.4816 18.1066 15 15 15C11.8934 15 9.375 12.4816 9.375 9.375C9.375 6.2684 11.8934 3.75 15 3.75C18.1066 3.75 20.625 6.2684 20.625 9.375ZM3.75 24.375C3.75 26.25 5.625 26.25 5.625 26.25H15.4801C15.1692 25.3703 15 24.4237 15 23.4375C15 20.8994 16.1207 18.623 17.8942 17.0763C17.0195 16.9466 16.0575 16.875 15 16.875C5.625 16.875 3.75 22.5 3.75 24.375Z" fill="#F2E7DC"/>
<path fill-rule="evenodd" clip-rule="evenodd" d="M22.2852 17.7366C22.6239 16.5878 24.2511 16.5878 24.5898 17.7366L24.6719 18.0153C24.8882 18.7493 25.7267 19.0966 26.3988 18.7306L26.6538 18.5916C27.7056 18.0187 28.8563 19.1694 28.2834 20.2212L28.1444 20.4762C27.7784 21.1483 28.1257 21.9868 28.8597 22.2031L29.1384 22.2852C30.2872 22.6239 30.2872 24.2511 29.1384 24.5898L28.8597 24.6719C28.1257 24.8882 27.7784 25.7267 28.1444 26.3988L28.2834 26.6538C28.8563 27.7057 27.7057 28.8563 26.6538 28.2834L26.3988 28.1444C25.7267 27.7784 24.8882 28.1257 24.6719 28.8597L24.5898 29.1384C24.2511 30.2872 22.6239 30.2872 22.2852 29.1384L22.2031 28.8597C21.9868 28.1257 21.1483 27.7784 20.4762 28.1444L20.2212 28.2834C19.1694 28.8563 18.0187 27.7057 18.5916 26.6538L18.7306 26.3988C19.0966 25.7267 18.7493 24.8882 18.0153 24.6719L17.7366 24.5898C16.5878 24.2511 16.5878 22.6239 17.7366 22.2852L18.0153 22.2031C18.7493 21.9868 19.0966 21.1483 18.7306 20.4762L18.5916 20.2212C18.0187 19.1694 19.1694 18.0187 20.2212 18.5916L20.4762 18.7306C21.1483 19.0966 21.9868 18.7493 22.2031 18.0153L22.2852 17.7366ZM26.25 23.4375C26.25 24.9908 24.9908 26.25 23.4375 26.25C21.8842 26.25 20.625 24.9908 20.625 23.4375C20.625 21.8842 21.8842 20.625 23.4375 20.625C24.9908 20.625 26.25 21.8842 26.25 23.4375Z" fill="#F2E7DC"/>
</svg>
